<svg xmlns="http://www.w3.org/2000/svg" viewBox="0 0 64 64" role="img" aria-label="Grounded SAP Atlas favicon">
  <defs>
    <linearGradient id="bg" x1="0" y1="0" x2="1" y2="1">
      <stop offset="0%" stop-color="#0f7f79"/>
      <stop offset="100%" stop-color="#df6f2d"/>
    </linearGradient>
  </defs>
  <rect x="4" y="4" width="56" height="56" rx="14" fill="url(#bg)"/>
  <path d="M18 20.5h11.5c3.9 0 6.3 2.1 6.3 5.6 0 2.2-1.1 3.9-3.1 4.7 2.5.6 3.9 2.5 3.9 5.2 0 4.1-2.8 6.5-7.5 6.5H18V20.5zm10.7 8.8c1.6 0 2.5-.8 2.5-2.1 0-1.2-.9-1.9-2.5-1.9h-5.8v4H28.7zm.5 8.6c1.8 0 2.8-.8 2.8-2.3s-1-2.3-2.8-2.3h-6.3v4.6h6.3z" fill="#ffffff"/>
  <path d="M40.5 42.5l6.8-22h4.9l6.9 22h-4.8l-1.4-4.9h-6.5L45 42.5h-4.5zm11.3-9-2.1-7.5-2.1 7.5h4.2z" fill="#ffffff"/>
</svg>
