<svg xmlns="http://www.w3.org/2000/svg" xmlns:xlink="http://www.w3.org/1999/xlink" width="1240" height="928.4"><rect width="1240" height="928.4" rx="5" ry="5" class="a"/><svg y="0%" x="0%"><circle cx="20" cy="20" r="6" fill="#ff5f58"/><circle cx="40" cy="20" r="6" fill="#ffbd2e"/><circle cx="60" cy="20" r="6" fill="#18c132"/></svg><svg height="868.4" viewBox="0 0 120 86.84" width="1200" x="15" xmlns="http://www.w3.org/2000/svg" xmlns:xlink="http://www.w3.org/1999/xlink" y="50"><style>.a{fill:#282d35}.f,.h,.i{fill:#b9c0cb;white-space:pre}.h,.i{fill:#66c2cd;font-weight:700}.i{fill:#a8cc8c}</style><g font-family="Monaco,Consolas,Menlo,'Bitstream Vera Sans Mono','Powerline Symbols',monospace" font-size="1.67"><defs><symbol id="1"><text x="6.012" y="1.67" class="f">10</text><text x="9.018" y="1.67" class="f">|</text></symbol><symbol id="2"><text x="3.006" y="1.67" class="f">doc</text><text x="7.014" y="1.67" class="f">·</text><text x="9.018" y="1.67" class="f">track=demo</text><text x="20.04" y="1.67" class="f">·</text><text x="22.044" y="1.67" class="f">module=agent-runtime</text></symbol><symbol id="a"><path fill="transparent" d="M0 0h120v40H0z"/></symbol></defs><path class="a" d="M0 0h120v86.84H0z"/><svg width="120"><svg><use xlink:href="#a"/><text y="1.67" class="h">#</text><text x="2.004" y="1.67" class="h">Grounded</text><text x="11.022" y="1.67" class="h">Knowledge</text><text x="21.042" y="1.67" class="h">Engine</text><text x="28.056" y="1.67" class="h">—</text><text x="30.06" y="1.67" class="h">the</text><text x="34.068" y="1.67" class="h">loop</text><text y="6.012" class="i">$</text><text x="2.004" y="6.012" class="i">ground</text><text x="9.018" y="6.012" class="i">a</text><text x="11.022" y="6.012" class="i">question</text><text x="20.04" y="6.012" class="i">in</text><text x="23.046" y="6.012" class="i">your</text><text x="28.056" y="6.012" class="i">own</text><text x="32.064" y="6.012" class="i">Markdown</text><text x="41.082" y="6.012" class="i">(with</text><text x="47.094" y="6.012" class="i">citations)</text><text y="8.183" class="f">#</text><text x="2.004" y="8.183" class="f">Local</text><text x="8.016" y="8.183" class="f">Grounding</text><text x="18.036" y="8.183" class="f">Search</text><text y="10.354" class="f">Query:</text><text x="7.014" y="10.354" class="f">are</text><text x="11.022" y="10.354" class="f">MCP</text><text x="15.03" y="10.354" class="f">tools</text><text x="21.042" y="10.354" class="f">model-controlled</text><text x="38.076" y="10.354" class="f">or</text><text x="41.082" y="10.354" class="f">application-controlled?</text><text y="12.525" class="f">Mode:</text><text x="6.012" y="12.525" class="f">generic</text><text y="14.696" class="f">Track</text><text x="6.012" y="14.696" class="f">filter:</text><text x="14.028" y="14.696" class="f">(none)</text><text y="16.867" class="f">Module</text><text x="7.014" y="16.867" class="f">filter:</text><text x="15.03" y="16.867" class="f">(none)</text><text y="19.038" class="f">Hits</text><text x="5.01" y="19.038" class="f">returned:</text><text x="15.03" y="19.038" class="f">3</text><text y="21.209" class="f">Latency:</text><text x="9.018" y="21.209" class="f">1</text><text x="11.022" y="21.209" class="f">ms</text><text x="14.028" y="21.209" class="f">(cache</text><text x="21.042" y="21.209" class="f">hit:</text><text x="26.052" y="21.209" class="f">no)</text><text y="25.551" class="f">1.</text><text x="3.006" y="25.551" class="f">[score</text><text x="10.02" y="25.551" class="f">11.4]</text><text x="16.032" y="25.551" class="f">kb/topics/mcp-primitive-decision.md:11</text><text x="3.006" y="27.722" class="f">kb-topic</text><text x="12.024" y="27.722" class="f">·</text><text x="14.028" y="27.722" class="f">track=demo</text><text x="25.05" y="27.722" class="f">·</text><text x="27.054" y="27.722" class="f">module=knowledge-ops</text><text x="3.006" y="29.893" class="f">title:</text><text x="10.02" y="29.893" class="f">MCP</text><text x="14.028" y="29.893" class="f">Primitive</text><text x="24.048" y="29.893" class="f">Decision</text><use xlink:href="#1" y="30.394"/><text x="1.002" y="34.235" class="f">&gt;</text><text x="6.012" y="34.235" class="f">11</text><text x="9.018" y="34.235" class="f">|</text><text x="11.022" y="34.235" class="f">-</text><text x="13.026" y="34.235" class="f">The</text><text x="17.034" y="34.235" class="f">MCP</text><text x="21.042" y="34.235" class="f">source</text><text x="28.056" y="34.235" class="f">notes</text><text x="34.068" y="34.235" class="f">distinguish</text><text x="46.092" y="34.235" class="f">model-controlled</text><text x="63.126" y="34.235" class="f">tools</text><text x="69.138" y="34.235" class="f">from</text><text x="74.148" y="34.235" class="f">application-controlled</text><text x="97.194" y="34.235" class="f">resources.</text><text x="6.012" y="36.406" class="f">12</text><text x="9.018" y="36.406" class="f">|</text><text x="11.022" y="36.406" class="f">-</text><text x="13.026" y="36.406" class="f">This</text><text x="18.036" y="36.406" class="f">note</text><text x="23.046" y="36.406" class="f">is</text><text x="26.052" y="36.406" class="f">written</text><text x="34.068" y="36.406" class="f">by</text><text x="37.074" y="36.406" class="f">the</text><text x="41.082" y="36.406" class="f">MCP</text><text x="45.09" y="36.406" class="f">smoke</text><text x="51.102" y="36.406" class="f">test</text><text x="56.112" y="36.406" class="f">to</text><text x="59.118" y="36.406" class="f">prove</text><text x="65.13" y="36.406" class="f">retain-and-reuse</text><text x="82.164" y="36.406" class="f">behavior.</text><text y="40.748" class="f">2.</text><text x="3.006" y="40.748" class="f">[score</text><text x="10.02" y="40.748" class="f">10.05]</text><text x="17.034" y="40.748" class="f">demo-kb/topics/mcp-source-tools.md:11</text><use xlink:href="#2" y="41.249"/><text x="3.006" y="45.09" class="f">title:</text><text x="10.02" y="45.09" class="f">MCP</text><text x="14.028" y="45.09" class="f">Source</text><text x="21.042" y="45.09" class="f">Notes:</text><text x="28.056" y="45.09" class="f">Tools</text><use xlink:href="#1" y="45.591"/><text x="1.002" y="49.432" class="f">&gt;</text><text x="6.012" y="49.432" class="f">11</text><text x="9.018" y="49.432" class="f">|</text><text x="11.022" y="49.432" class="f">Tools</text><text x="17.034" y="49.432" class="f">are</text><text x="21.042" y="49.432" class="f">model-controlled,</text><text x="39.078" y="49.432" class="f">unlike</text><text x="46.092" y="49.432" class="f">resources,</text><text x="57.114" y="49.432" class="f">which</text><text x="63.126" y="49.432" class="f">are</text><text x="67.134" y="49.432" class="f">usually</text><text x="75.15" y="49.432" class="f">selected</text><text x="84.168" y="49.432" class="f">by</text><text x="87.174" y="49.432" class="f">the</text><text x="6.012" y="51.603" class="f">12</text><text x="9.018" y="51.603" class="f">|</text><text x="11.022" y="51.603" class="f">application.</text><text x="24.048" y="51.603" class="f">Search</text><text x="31.062" y="51.603" class="f">and</text><text x="35.07" y="51.603" class="f">capture</text><text x="43.086" y="51.603" class="f">are</text><text x="47.094" y="51.603" class="f">tools</text><text x="53.106" y="51.603" class="f">because</text><text x="61.122" y="51.603" class="f">the</text><text x="65.13" y="51.603" class="f">agent</text><text x="71.142" y="51.603" class="f">can</text><text x="75.15" y="51.603" class="f">decide</text><text x="82.164" y="51.603" class="f">to</text><text x="85.17" y="51.603" class="f">call</text><text y="55.945" class="f">3.</text><text x="3.006" y="55.945" class="f">[score</text><text x="10.02" y="55.945" class="f">9.01]</text><text x="16.032" y="55.945" class="f">demo-kb/topics/mcp-source-prompts.md:4</text><use xlink:href="#2" y="56.446"/><text x="3.006" y="60.287" class="f">title:</text><text x="10.02" y="60.287" class="f">MCP</text><text x="14.028" y="60.287" class="f">Source</text><text x="21.042" y="60.287" class="f">Notes:</text><text x="28.056" y="60.287" class="f">Prompts</text><text x="7.014" y="62.458" class="f">3</text><text x="9.018" y="62.458" class="f">|</text><text x="11.022" y="62.458" class="f">MCP</text><text x="15.03" y="62.458" class="f">prompts</text><text x="23.046" y="62.458" class="f">are</text><text x="27.054" y="62.458" class="f">reusable,</text><text x="37.074" y="62.458" class="f">parameterized</text><text x="51.102" y="62.458" class="f">templates</text><text x="61.122" y="62.458" class="f">a</text><text x="63.126" y="62.458" class="f">server</text><text x="70.14" y="62.458" class="f">exposes</text><text x="78.156" y="62.458" class="f">so</text><text x="81.162" y="62.458" class="f">an</text><text x="1.002" y="64.629" class="f">&gt;</text><text x="7.014" y="64.629" class="f">4</text><text x="9.018" y="64.629" class="f">|</text><text x="11.022" y="64.629" class="f">application</text><text x="23.046" y="64.629" class="f">can</text><text x="27.054" y="64.629" class="f">offer</text><text x="33.066" y="64.629" class="f">consistent,</text><text x="45.09" y="64.629" class="f">structured</text><text x="56.112" y="64.629" class="f">interactions.</text><text x="70.14" y="64.629" class="f">Unlike</text><text x="77.154" y="64.629" class="f">tools,</text><text x="84.168" y="64.629" class="f">which</text><text x="7.014" y="66.8" class="f">5</text><text x="9.018" y="66.8" class="f">|</text><text x="11.022" y="66.8" class="f">are</text><text x="15.03" y="66.8" class="f">model-controlled,</text><text x="33.066" y="66.8" class="f">prompts</text><text x="41.082" y="66.8" class="f">are</text><text x="45.09" y="66.8" class="f">user-controlled:</text><text x="62.124" y="66.8" class="f">the</text><text x="66.132" y="66.8" class="f">person</text><text x="73.146" y="66.8" class="f">explicitly</text><text x="84.168" y="66.8" class="f">picks</text><text y="71.142" class="i">$</text><text x="2.004" y="71.142" class="i">prove</text><text x="8.016" y="71.142" class="i">the</text><text x="12.024" y="71.142" class="i">full</text><text x="17.034" y="71.142" class="i">loop:</text><text x="23.046" y="71.142" class="i">answer</text><text x="30.06" y="71.142" class="i">-&gt;</text><text x="33.066" y="71.142" class="i">capture</text><text x="41.082" y="71.142" class="i">-&gt;</text><text x="44.088" y="71.142" class="i">re-answer</text><text y="73.313" class="f">KB</text><text x="3.006" y="73.313" class="f">MCP</text><text x="7.014" y="73.313" class="f">smoke</text><text x="13.026" y="73.313" class="f">test</text><text x="18.036" y="73.313" class="f">passed.</text><text y="77.655" class="h">#</text><text x="2.004" y="77.655" class="h">grounded</text><text x="11.022" y="77.655" class="h">with</text><text x="16.032" y="77.655" class="h">citations,</text><text x="27.054" y="77.655" class="h">captured,</text><text x="37.074" y="77.655" class="h">and</text><text x="41.082" y="77.655" class="h">recalled</text><text x="50.1" y="77.655" class="h">—</text><text x="52.104" y="77.655" class="h">same</text><text x="57.114" y="77.655" class="h">capability</text><text x="68.136" y="77.655" class="h">over</text><text x="73.146" y="77.655" class="h">MCP</text></svg></svg></g></svg></svg>