<svg xmlns="http://www.w3.org/2000/svg" xmlns:xlink="http://www.w3.org/1999/xlink" width="1200" height="971.82"><rect width="1200" height="971.82" rx="5" ry="5" class="a"/><svg y="0%" x="0%"><circle cx="20" cy="20" r="6" fill="#ff5f58"/><circle cx="40" cy="20" r="6" fill="#ffbd2e"/><circle cx="60" cy="20" r="6" fill="#18c132"/></svg><svg height="911.82" viewBox="0 0 116 91.182" width="1160" x="15" xmlns="http://www.w3.org/2000/svg" xmlns:xlink="http://www.w3.org/1999/xlink" y="50"><style>.a{fill:#282d35}.g{fill:#66c2cd;font-weight:700}.g,.h,.i{white-space:pre}.h{fill:#a8cc8c;font-weight:700}.i{fill:#b9c0cb}</style><g font-family="Monaco,Consolas,Menlo,'Bitstream Vera Sans Mono','Powerline Symbols',monospace" font-size="1.67"><defs><symbol id="a"><path fill="transparent" d="M0 0h116v42H0z"/></symbol></defs><path class="a" d="M0 0h116v91.182H0z"/><svg width="116"><svg><use xlink:href="#a"/><text y="1.67" class="g">#</text><text x="2.004" y="1.67" class="g">Grounded</text><text x="11.022" y="1.67" class="g">Knowledge</text><text x="21.042" y="1.67" class="g">Engine</text><text x="28.056" y="1.67" class="g">—</text><text x="30.06" y="1.67" class="g">knowledge</text><text x="40.08" y="1.67" class="g">that</text><text x="45.09" y="1.67" class="g">survives</text><text x="54.108" y="1.67" class="g">the</text><text x="58.116" y="1.67" class="g">chat</text><text y="6.012" class="h">$</text><text x="2.004" y="6.012" class="h">ground</text><text x="9.018" y="6.012" class="h">a</text><text x="11.022" y="6.012" class="h">question</text><text x="20.04" y="6.012" class="h">in</text><text x="23.046" y="6.012" class="h">your</text><text x="28.056" y="6.012" class="h">own</text><text x="32.064" y="6.012" class="h">Markdown</text><text x="41.082" y="6.012" class="h">(with</text><text x="47.094" y="6.012" class="h">citations)</text><text y="8.183" class="i">#</text><text x="2.004" y="8.183" class="i">Local</text><text x="8.016" y="8.183" class="i">Grounding</text><text x="18.036" y="8.183" class="i">Search</text><text y="10.354" class="i">Query:</text><text x="7.014" y="10.354" class="i">are</text><text x="11.022" y="10.354" class="i">MCP</text><text x="15.03" y="10.354" class="i">tools</text><text x="21.042" y="10.354" class="i">model-controlled</text><text x="38.076" y="10.354" class="i">or</text><text x="41.082" y="10.354" class="i">application-controlled?</text><text y="12.525" class="i">Mode:</text><text x="6.012" y="12.525" class="i">generic</text><text y="14.696" class="i">Track</text><text x="6.012" y="14.696" class="i">filter:</text><text x="14.028" y="14.696" class="i">(none)</text><text y="16.867" class="i">Module</text><text x="7.014" y="16.867" class="i">filter:</text><text x="15.03" y="16.867" class="i">(none)</text><text y="19.038" class="i">Hits</text><text x="5.01" y="19.038" class="i">returned:</text><text x="15.03" y="19.038" class="i">1</text><text y="21.209" class="i">Latency:</text><text x="9.018" y="21.209" class="i">1</text><text x="11.022" y="21.209" class="i">ms</text><text x="14.028" y="21.209" class="i">(cache</text><text x="21.042" y="21.209" class="i">hit:</text><text x="26.052" y="21.209" class="i">no)</text><text y="25.551" class="i">1.</text><text x="3.006" y="25.551" class="i">[score</text><text x="10.02" y="25.551" class="i">12.76]</text><text x="17.034" y="25.551" class="i">kb/topics/mcp-primitive-decision.md:11</text><text x="3.006" y="27.722" class="i">kb-topic</text><text x="12.024" y="27.722" class="i">·</text><text x="14.028" y="27.722" class="i">track=demo</text><text x="25.05" y="27.722" class="i">·</text><text x="27.054" y="27.722" class="i">module=knowledge-ops</text><text x="3.006" y="29.893" class="i">title:</text><text x="10.02" y="29.893" class="i">MCP</text><text x="14.028" y="29.893" class="i">Primitive</text><text x="24.048" y="29.893" class="i">Decision</text><text x="1.002" y="32.064" class="i">&gt;</text><text x="6.012" y="32.064" class="i">11</text><text x="9.018" y="32.064" class="i">|</text><text x="11.022" y="32.064" class="i">-</text><text x="13.026" y="32.064" class="i">The</text><text x="17.034" y="32.064" class="i">MCP</text><text x="21.042" y="32.064" class="i">source</text><text x="28.056" y="32.064" class="i">notes</text><text x="34.068" y="32.064" class="i">distinguish</text><text x="46.092" y="32.064" class="i">model-controlled</text><text x="63.126" y="32.064" class="i">tools</text><text x="69.138" y="32.064" class="i">from</text><text x="74.148" y="32.064" class="i">application-controlled</text><text x="97.194" y="32.064" class="i">resources.</text><text y="36.406" class="h">$</text><text x="2.004" y="36.406" class="h">prove</text><text x="8.016" y="36.406" class="h">MCP</text><text x="12.024" y="36.406" class="h">discovery,</text><text x="23.046" y="36.406" class="h">resources,</text><text x="34.068" y="36.406" class="h">answer</text><text x="41.082" y="36.406" class="h">-&gt;</text><text x="44.088" y="36.406" class="h">capture</text><text x="52.104" y="36.406" class="h">-&gt;</text><text x="55.11" y="36.406" class="h">re-answer</text><text y="38.577" class="i">KB</text><text x="3.006" y="38.577" class="i">MCP</text><text x="7.014" y="38.577" class="i">smoke</text><text x="13.026" y="38.577" class="i">test</text><text x="18.036" y="38.577" class="i">passed.</text><text y="42.919" class="h">$</text><text x="2.004" y="42.919" class="h">resume</text><text x="9.018" y="42.919" class="h">one</text><text x="13.026" y="42.919" class="h">explicit</text><text x="22.044" y="42.919" class="h">project</text><text x="30.06" y="42.919" class="h">(same</text><text x="36.072" y="42.919" class="h">facts</text><text x="42.084" y="42.919" class="h">in</text><text x="45.09" y="42.919" class="h">MCP</text><text x="49.098" y="42.919" class="h">+</text><text x="51.102" y="42.919" class="h">Cockpit)</text><text y="45.09" class="i">Project:</text><text x="9.018" y="45.09" class="i">Router</text><text x="16.032" y="45.09" class="i">Rollout</text><text x="24.048" y="45.09" class="i">(router-rollout)</text><text y="47.261" class="i">Focus:</text><text x="7.014" y="47.261" class="i">Validate</text><text x="16.032" y="47.261" class="i">the</text><text x="20.04" y="47.261" class="i">project-resume</text><text x="35.07" y="47.261" class="i">capsule</text><text x="43.086" y="47.261" class="i">against</text><text x="51.102" y="47.261" class="i">the</text><text x="55.11" y="47.261" class="i">canonical</text><text x="65.13" y="47.261" class="i">project</text><text x="73.146" y="47.261" class="i">structure.</text><text y="49.432" class="i">Recent:</text><text x="8.016" y="49.432" class="i">The</text><text x="12.024" y="49.432" class="i">project</text><text x="20.04" y="49.432" class="i">context</text><text x="28.056" y="49.432" class="i">became</text><text x="35.07" y="49.432" class="i">available</text><text x="45.09" y="49.432" class="i">through</text><text x="53.106" y="49.432" class="i">both</text><text x="58.116" y="49.432" class="i">`kb.resume_project`</text><text x="78.156" y="49.432" class="i">and</text><text x="82.164" y="49.432" class="i">the</text><text y="51.603" class="i">`gke://project/router-rollout/context`</text><text x="39.078" y="51.603" class="i">resource.</text><text y="53.774" class="i">Decision:</text><text x="10.02" y="53.774" class="i">Keep</text><text x="15.03" y="53.774" class="i">the</text><text x="19.038" y="53.774" class="i">default</text><text x="27.054" y="53.774" class="i">MCP</text><text x="31.062" y="53.774" class="i">profile</text><text x="39.078" y="53.774" class="i">small</text><text x="45.09" y="53.774" class="i">and</text><text x="49.098" y="53.774" class="i">semantic.</text><text y="55.945" class="i">Decision:</text><text x="10.02" y="55.945" class="i">Preserve</text><text x="19.038" y="55.945" class="i">Markdown</text><text x="28.056" y="55.945" class="i">as</text><text x="31.062" y="55.945" class="i">the</text><text x="35.07" y="55.945" class="i">canonical</text><text x="45.09" y="55.945" class="i">source</text><text x="52.104" y="55.945" class="i">of</text><text x="55.11" y="55.945" class="i">project</text><text x="63.126" y="55.945" class="i">state.</text><text y="58.116" class="i">Risk/question:</text><text x="15.03" y="58.116" class="i">The</text><text x="19.038" y="58.116" class="i">Microsoft</text><text x="29.058" y="58.116" class="i">tunnel</text><text x="36.072" y="58.116" class="i">proof</text><text x="42.084" y="58.116" class="i">remains</text><text x="50.1" y="58.116" class="i">outside</text><text x="58.116" y="58.116" class="i">this</text><text x="63.126" y="58.116" class="i">milestone.</text><text y="60.287" class="i">Risk/question:</text><text x="15.03" y="60.287" class="i">Which</text><text x="21.042" y="60.287" class="i">project-resume</text><text x="36.072" y="60.287" class="i">interaction</text><text x="48.096" y="60.287" class="i">should</text><text x="55.11" y="60.287" class="i">lead</text><text x="60.12" y="60.287" class="i">the</text><text x="64.128" y="60.287" class="i">public</text><text x="71.142" y="60.287" class="i">demonstration?</text><text y="62.458" class="i">Next</text><text x="5.01" y="62.458" class="i">1:</text><text x="8.016" y="62.458" class="i">Open</text><text x="13.026" y="62.458" class="i">the</text><text x="17.034" y="62.458" class="i">project</text><text x="25.05" y="62.458" class="i">in</text><text x="28.056" y="62.458" class="i">the</text><text x="32.064" y="62.458" class="i">Operator</text><text x="41.082" y="62.458" class="i">Cockpit.</text><text y="64.629" class="i">Next</text><text x="5.01" y="64.629" class="i">2:</text><text x="8.016" y="64.629" class="i">Resume</text><text x="15.03" y="64.629" class="i">it</text><text x="18.036" y="64.629" class="i">through</text><text x="26.052" y="64.629" class="i">the</text><text x="30.06" y="64.629" class="i">MCP</text><text x="34.068" y="64.629" class="i">tool</text><text x="39.078" y="64.629" class="i">and</text><text x="43.086" y="64.629" class="i">compare</text><text x="51.102" y="64.629" class="i">the</text><text x="55.11" y="64.629" class="i">facts.</text><text y="66.8" class="i">Next</text><text x="5.01" y="66.8" class="i">3:</text><text x="8.016" y="66.8" class="i">Export</text><text x="15.03" y="66.8" class="i">the</text><text x="19.038" y="66.8" class="i">technical-peer</text><text x="34.068" y="66.8" class="i">handoff.</text><text y="68.971" class="i">Evidence:</text><text x="10.02" y="68.971" class="i">demo-kb/projects/router-rollout/project.md:19</text><text y="73.313" class="g">#</text><text x="2.004" y="73.313" class="g">local</text><text x="8.016" y="73.313" class="g">files</text><text x="14.028" y="73.313" class="g">-&gt;</text><text x="17.034" y="73.313" class="g">cited</text><text x="23.046" y="73.313" class="g">answers</text><text x="31.062" y="73.313" class="g">-&gt;</text><text x="34.068" y="73.313" class="g">durable</text><text x="42.084" y="73.313" class="g">learning</text><text x="51.102" y="73.313" class="g">-&gt;</text><text x="54.108" y="73.313" class="g">project</text><text x="62.124" y="73.313" class="g">handoff</text></svg></svg></g></svg></svg>